<svg height="100%" stroke-miterlimit="10" style="fill-rule:nonzero;clip-rule:evenodd;stroke-linecap:round;stroke-linejoin:round;" version="1.1" viewBox="0 0 215.17 274.006" width="100%" xml:space="preserve" xmlns="http://www.w3.org/2000/svg" xmlns:xlink="http://www.w3.org/1999/xlink">
  <defs>
    <path d="M4.05242 50.3695L4.05242 60.182C4.05242 110.488 4.05242 211.095 4.05242 261.401L4.05242 271.213L13.8649 271.213C32.0448 271.213 68.4037 271.213 86.5837 271.213L96.3962 271.213L96.3962 261.401C96.3962 211.095 96.3962 110.488 96.3962 60.182L96.3962 50.3695L86.5837 50.3695C68.4037 50.3695 32.0448 50.3695 13.8649 50.3695L4.05242 50.3695Z" id="Fill" />
    <path d="M9.96047 60.1681L90.4881 60.1681L90.4881 261.39L9.96047 261.39L9.96047 60.1681Z" id="Fill_2" />
    <clipPath id="TextBounds">
      <rect height="65.0175" width="88.7506" x="111.23" y="123.914" />
    </clipPath>
    <clipPath id="TextBounds_2">
      <rect height="74.241" width="18.1604" x="166.412" y="39.8598" />
    </clipPath>
    <clipPath id="TextBounds_3">
      <rect height="28.0549" width="86.8854" x="21.2536" y="177.109" />
    </clipPath>
  </defs>
  <g id="Box">
    <path d="M9.28744 52.2925L9.56869 268.261L12.4437 268.261L12.5374 268.199L211.544 5.64695L119.747 5.89994L5.00125 50.8018" fill="#626466" fill-rule="nonzero" opacity="1" stroke="#000000" stroke-dasharray="" stroke-linecap="round" stroke-linejoin="miter" stroke-width="1.5" />
    <path d="M93.271 54.4579L93.5522 270.427L96.4272 270.427L96.521 270.364L211.793 206.941L211.776 5.68018L94.7068 51.3137" fill="#626466" fill-rule="nonzero" opacity="1" stroke="#000000" stroke-dasharray="" stroke-linecap="round" stroke-linejoin="miter" stroke-width="1.5" />
    <g opacity="1">
      <use fill="#626466" fill-rule="nonzero" stroke="none" xlink:href="#Fill" />
      <mask height="220.844" id="StrokeMask" maskUnits="userSpaceOnUse" width="92.3437" x="4.05242" y="50.3695">
        <rect fill="#000000" height="220.844" stroke="none" width="92.3437" x="4.05242" y="50.3695" />
        <use fill="#ffffff" fill-rule="evenodd" stroke="none" xlink:href="#Fill" />
      </mask>
      <use fill="none" mask="url(#StrokeMask)" stroke="#000000" stroke-dasharray="" stroke-linecap="round" stroke-linejoin="miter" stroke-width="3" xlink:href="#Fill" />
    </g>
    <g opacity="1">
      <use fill="#cabfbf" fill-rule="nonzero" stroke="none" xlink:href="#Fill_2" />
      <mask height="201.222" id="StrokeMask_2" maskUnits="userSpaceOnUse" width="80.5277" x="9.96047" y="60.1681">
        <rect fill="#000000" height="201.222" stroke="none" width="80.5277" x="9.96047" y="60.1681" />
        <use fill="#ffffff" fill-rule="evenodd" stroke="none" xlink:href="#Fill_2" />
      </mask>
      <use fill="none" mask="url(#StrokeMask_2)" stroke="#000000" stroke-dasharray="" stroke-linecap="round" stroke-linejoin="miter" stroke-width="3" xlink:href="#Fill_2" />
    </g>
    <path d="M11.3566 259.568L89.599 229.335" fill="none" opacity="1" stroke="#000000" stroke-dasharray="" stroke-linecap="round" stroke-linejoin="miter" stroke-width="1.5" />
    <path d="M95.55 51.328L89.5089 61.0762" fill="none" opacity="1" stroke="#000000" stroke-dasharray="" stroke-linecap="round" stroke-linejoin="miter" stroke-width="1.5" />
    <path d="M4.98458 51.071L10.6579 60.7232" fill="none" opacity="1" stroke="#000000" stroke-dasharray="" stroke-linecap="round" stroke-linejoin="miter" stroke-width="1.5" />
    <path d="M11.1167 260.109L5.31201 270.08" fill="none" opacity="1" stroke="#000000" stroke-dasharray="" stroke-linecap="round" stroke-linejoin="miter" stroke-width="1.5" />
    <path d="M89.6567 260.361L95.5335 270.209" fill="none" opacity="1" stroke="#000000" stroke-dasharray="" stroke-linecap="round" stroke-linejoin="miter" stroke-width="1.5" />
  </g>
  <g id="Measurements">
    <g fill="#e94420" opacity="1" stroke="none">
      <path clip-path="url(#TextBounds)" d="M120.71 177.793L113.434 164.591L115.325 163.549L118.442 169.204L120.778 167.916L117.661 162.261L119.552 161.219L126.829 174.42L124.937 175.463L121.698 169.585L119.362 170.873L122.601 176.75L120.71 177.793Z" />
      <path clip-path="url(#TextBounds)" d="M131.872 171.641L124.596 158.439L126.487 157.397L133.763 170.598L131.872 171.641Z" />
      <path clip-path="url(#TextBounds)" d="M138.807 167.818L131.53 154.617L134.33 153.074C135.418 152.474 136.407 152.316 137.296 152.599C138.185 152.883 138.93 153.568 139.53 154.656L142.933 160.83C143.614 162.066 143.817 163.143 143.541 164.061C143.265 164.978 142.565 165.747 141.44 166.367L138.807 167.818ZM134.403 155.354L139.717 164.996L140.588 164.516C141.12 164.223 141.424 163.882 141.5 163.494C141.576 163.105 141.457 162.627 141.144 162.058L137.638 155.698C137.352 155.179 137.026 154.835 136.659 154.667C136.292 154.498 135.83 154.567 135.274 154.874L134.403 155.354Z" />
      <path clip-path="url(#TextBounds)" d="M151.156 161.012L144.86 149.59L142.672 150.796L141.691 149.016L147.958 145.562L148.939 147.342L146.752 148.548L153.047 159.97L151.156 161.012Z" />
      <path clip-path="url(#TextBounds)" d="M159.277 156.536L152.001 143.334L153.892 142.292L157.009 147.947L159.345 146.659L156.228 141.004L158.119 139.962L165.396 153.163L163.504 154.206L160.265 148.328L157.929 149.616L161.168 155.493L159.277 156.536Z" />
    </g>
    <g fill="#e94420" opacity="1" stroke="none">
      <path clip-path="url(#TextBounds_2)" d="M182.205 111.531L166.419 111.487L166.425 109.226L173.187 109.244L173.195 106.451L166.433 106.432L166.439 104.171L182.225 104.214L182.218 106.476L175.19 106.456L175.183 109.25L182.211 109.269L182.205 111.531Z" />
      <path clip-path="url(#TextBounds_2)" d="M182.241 98.4233L166.455 98.3797L166.474 91.6399L168.602 91.6458L168.59 96.1242L173.224 96.137L173.234 92.235L175.363 92.2409L175.352 96.1429L179.986 96.1557L179.998 91.6772L182.259 91.6835L182.241 98.4233Z" />
      <path clip-path="url(#TextBounds_2)" d="M182.274 86.4909L166.488 86.4473L166.495 84.1859L182.28 84.2296L182.274 86.4909Z" />
      <path clip-path="url(#TextBounds_2)" d="M170.235 78.4716C169.599 78.4698 169.038 78.3574 168.551 78.1344C168.064 77.9113 167.658 77.6146 167.334 77.2442C167.025 76.8886 166.789 76.4852 166.628 76.0339C166.467 75.5827 166.387 75.128 166.388 74.6698C166.389 74.2116 166.472 73.7573 166.635 73.307C166.799 72.8566 167.037 72.4471 167.348 72.0785C167.674 71.7246 168.082 71.4376 168.57 71.2172C169.058 70.9968 169.62 70.8875 170.256 70.8893L171.054 70.8915L171.048 73.1529L170.25 73.1507C169.703 73.1492 169.3 73.2996 169.04 73.6018C168.781 73.9041 168.65 74.2622 168.649 74.676C168.648 75.0899 168.776 75.4487 169.034 75.7524C169.292 76.0561 169.694 76.2087 170.241 76.2102L178.577 76.2332C179.124 76.2348 179.527 76.0844 179.787 75.7821C180.046 75.4798 180.177 75.1217 180.178 74.7079C180.179 74.294 180.051 73.9353 179.793 73.6315C179.535 73.3278 179.133 73.1752 178.586 73.1737L175.615 73.1655L175.61 74.9613L173.615 74.9558L173.626 70.8986L178.592 70.9123C179.257 70.9142 179.826 71.0266 180.298 71.2496C180.771 71.4726 181.162 71.7619 181.471 72.1175C181.795 72.4879 182.038 72.8987 182.199 73.35C182.36 73.8012 182.441 74.2559 182.439 74.7141C182.438 75.1723 182.355 75.6266 182.192 76.0769C182.028 76.5273 181.783 76.9294 181.457 77.2832C181.145 77.6519 180.753 77.9464 180.279 78.1668C179.806 78.3872 179.236 78.4965 178.571 78.4946L170.235 78.4716Z" />
      <path clip-path="url(#TextBounds_2)" d="M182.332 65.2645L166.547 65.2209L166.553 62.9595L173.315 62.9782L173.323 60.1847L166.561 60.166L166.567 57.9046L182.353 57.9482L182.346 60.2096L175.318 60.1902L175.311 62.9837L182.339 63.0031L182.332 65.2645Z" />
      <path clip-path="url(#TextBounds_2)" d="M182.373 50.6717L168.716 50.6339L168.708 53.2501L166.58 53.2442L166.601 45.7506L168.729 45.7564L168.722 48.3726L182.379 48.4103L182.373 50.6717Z" />
    </g>
    <g fill="#e94420" opacity="1" stroke="none">
      <path clip-path="url(#TextBounds_3)" d="M31.2189 181.69L28.9575 181.682L28.9593 181.172C28.9612 180.655 28.8409 180.207 28.5984 179.829C28.3559 179.452 27.9465 179.262 27.37 179.26C27.0597 179.258 26.8082 179.317 26.6156 179.434C26.423 179.552 26.2673 179.699 26.1484 179.876C26.0295 180.068 25.9474 180.285 25.9021 180.529C25.8569 180.773 25.8338 181.028 25.8328 181.294C25.8317 181.604 25.8418 181.863 25.8632 182.07C25.8847 182.277 25.9394 182.462 26.0275 182.625C26.1156 182.788 26.2444 182.928 26.4139 183.047C26.5835 183.166 26.8158 183.285 27.111 183.405L28.8378 184.098C29.3396 184.292 29.7452 184.519 30.0547 184.779C30.3641 185.039 30.6069 185.339 30.783 185.679C30.9443 186.035 31.0537 186.438 31.1112 186.889C31.1686 187.34 31.1963 187.854 31.1942 188.43C31.1918 189.095 31.123 189.712 30.9879 190.281C30.8528 190.849 30.6367 191.332 30.3397 191.73C30.0278 192.143 29.6201 192.467 29.1167 192.701C28.6133 192.936 27.9995 193.052 27.2753 193.049C26.7284 193.047 26.2188 192.95 25.7466 192.756C25.2743 192.562 24.8688 192.294 24.5301 191.953C24.1914 191.612 23.9231 191.216 23.7252 190.764C23.5273 190.312 23.4294 189.821 23.4313 189.289L23.4344 188.446L25.6958 188.454L25.6932 189.164C25.6917 189.578 25.8122 189.951 26.0549 190.285C26.2976 190.618 26.7071 190.786 27.2835 190.788C27.6678 190.789 27.9673 190.735 28.1821 190.625C28.3968 190.515 28.5636 190.357 28.6826 190.15C28.8016 189.944 28.8727 189.696 28.896 189.408C28.9192 189.12 28.9315 188.799 28.9327 188.444C28.9343 188.03 28.9207 187.69 28.8921 187.424C28.8635 187.158 28.8052 186.943 28.7171 186.78C28.6143 186.617 28.478 186.484 28.3084 186.38C28.1388 186.276 27.9138 186.164 27.6335 186.045L26.0174 185.374C25.0434 184.971 24.3913 184.44 24.0612 183.781C23.731 183.122 23.5677 182.298 23.5714 181.308C23.5735 180.716 23.6569 180.155 23.8214 179.624C23.9859 179.092 24.2315 178.635 24.5581 178.252C24.8698 177.869 25.2663 177.563 25.7475 177.336C26.2287 177.109 26.8019 176.996 27.467 176.999C28.0287 177.001 28.5419 177.106 29.0067 177.315C29.4715 177.523 29.8733 177.798 30.212 178.139C30.8893 178.851 31.2263 179.665 31.2229 180.582L31.2189 181.69Z" />
      <path clip-path="url(#TextBounds_3)" d="M36.5255 192.95L36.5832 177.165L39.9753 177.177C40.596 177.18 41.1426 177.263 41.615 177.427C42.0874 177.592 42.5149 177.881 42.8977 178.297C43.2805 178.712 43.5448 179.197 43.6905 179.752C43.8363 180.306 43.9075 181.057 43.904 182.003C43.9014 182.712 43.8586 183.311 43.7755 183.798C43.6924 184.286 43.5171 184.743 43.2495 185.171C42.9372 185.687 42.5219 186.088 42.0035 186.375C41.4852 186.661 40.8047 186.802 39.9623 186.799L38.8094 186.795L38.7869 192.959L36.5255 192.95ZM38.8368 179.302L38.8172 184.667L39.9035 184.671C40.3617 184.672 40.7167 184.607 40.9684 184.475C41.2202 184.343 41.4056 184.159 41.5247 183.923C41.6438 183.702 41.715 183.428 41.7383 183.103C41.7617 182.778 41.7741 182.416 41.7756 182.017C41.7769 181.648 41.7708 181.297 41.7573 180.964C41.7437 180.631 41.6782 180.339 41.5609 180.088C41.4436 179.836 41.2669 179.643 41.0309 179.509C40.7949 179.375 40.4552 179.307 40.0118 179.306L38.8368 179.302Z" />
      <path clip-path="url(#TextBounds_3)" d="M49.2781 192.997L49.3358 177.212L51.5972 177.22L51.5395 193.005L49.2781 192.997Z" />
      <path clip-path="url(#TextBounds_3)" d="M57.3084 193.026L57.3662 177.241L59.5389 177.249L62.9183 186.772L62.9627 186.773L62.9975 177.262L65.2588 177.27L65.2011 193.055L63.0728 193.047L59.6489 183.546L59.6045 183.546L59.5698 193.035L57.3084 193.026Z" />
      <path clip-path="url(#TextBounds_3)" d="M70.9036 193.076L70.9613 177.291L77.7011 177.315L77.6933 179.444L73.2149 179.427L73.1979 184.061L77.0999 184.075L77.0921 186.204L73.1902 186.189L73.1732 190.823L77.6516 190.839L77.6434 193.101L70.9036 193.076Z" />
    </g>
    <g opacity="1">
      <path d="M185.91 21.0445C185.893 35.0107 185.68 216.071 185.68 216.071" fill="none" stroke="#e94420" stroke-dasharray="3.0" stroke-linecap="round" stroke-linejoin="miter" stroke-width="1" />
      <g fill="#e94420" stroke="none">
        <path d="M182.182 214.567L185.675 220.571L189.182 214.575L182.182 214.567Z" fill="#e94420" />
        <path d="M189.408 22.5486L185.915 16.5445L182.408 22.5404L189.408 22.5486Z" fill="#e94420" />
      </g>
    </g>
    <g opacity="1">
      <path d="M84.4144 195.434C77.3498 195.437 16.2299 195.46 16.2299 195.46" fill="none" stroke="#e94420" stroke-dasharray="3.0" stroke-linecap="round" stroke-linejoin="miter" stroke-width="1" />
      <g fill="#e94420" stroke="none">
        <path d="M17.7286 191.959L11.7299 195.462L17.7312 198.959L17.7286 191.959Z" fill="#e94420" />
        <path d="M82.9157 198.934L88.9144 195.432L82.913 191.934L82.9157 198.934Z" fill="#e94420" />
      </g>
    </g>
    <g opacity="1">
      <path d="M207.202 133.733C198.075 138.81 100.372 193.159 100.372 193.159" fill="none" stroke="#e94420" stroke-dasharray="3.0" stroke-linecap="round" stroke-linejoin="miter" stroke-width="1" />
      <g fill="#e94420" stroke="none">
        <path d="M99.981 189.372L96.4391 195.347L103.384 195.489L99.981 189.372Z" fill="#e94420" />
        <path d="M207.592 137.52L211.134 131.545L204.189 131.403L207.592 137.52Z" fill="#e94420" />
      </g>
    </g>
  </g>
</svg>